# 3ds Max Wavefront OBJ Exporter v0.97b - (c)2007 guruware
# File Created: 02.02.2020 11:48:42

#
# object Box005
#

v  -78.7402 0.0000 78.7402
v  -78.7402 0.0000 -0.0000
v  0.0000 0.0000 -0.0000
v  0.0000 0.0000 78.7402
v  78.7402 0.0000 -0.0000
v  78.7402 0.0000 78.7402
v  -78.7402 0.0000 -74.2580
v  -0.0000 0.0000 -74.2580
v  78.7402 0.0000 -74.2580
v  -85.6928 155.7556 61.0790
v  0.0000 157.5123 61.0790
v  0.0000 157.5123 0.0000
v  -85.4699 157.5148 0.0000
v  85.6928 155.7556 61.0790
v  85.4699 157.5148 0.0000
v  -0.0000 157.5156 -80.9876
v  -85.3489 158.4693 -80.8668
v  85.3489 158.4693 -80.8668
v  -65.3249 6.7068 44.5339
v  0.0000 6.7068 44.5339
v  0.0000 43.6318 39.1103
v  -59.9013 43.6318 39.1103
v  65.3249 6.7068 44.5339
v  59.9013 43.6318 39.1103
v  -42.1256 84.9932 72.8325
v  -24.5390 84.9932 72.8325
v  -24.5390 106.2477 70.1389
v  -39.4320 106.2477 70.1389
v  24.5390 84.9932 72.8325
v  42.1256 84.9932 72.8325
v  39.4320 106.2477 70.1389
v  24.5390 106.2477 70.1389
v  69.9431 59.8918 -0.0000
v  69.9431 59.8918 69.9431
v  69.9431 59.8918 -65.4609
v  97.4009 63.3716 69.9431
v  97.4009 63.3716 -0.0000
v  96.9737 66.7431 -92.4915
v  -0.0000 59.8918 -65.4609
v  -69.9431 59.8918 -65.4609
v  -0.0000 63.3716 -92.9188
v  -96.9737 66.7431 -92.4915
v  -69.9431 59.8918 -0.0000
v  -69.9431 59.8918 69.9431
v  -97.4009 63.3716 -0.0000
v  -97.4009 63.3716 69.9431
v  0.0000 59.8918 69.9431
v  -11.6066 71.4063 68.4838
v  -56.7858 71.4063 68.4838
v  0.0000 129.8348 61.0790
v  -11.6066 118.3203 62.5383
v  -61.0790 129.8348 61.0790
v  -50.8403 118.3203 62.5383
v  56.7858 71.4063 68.4838
v  11.6066 71.4063 68.4838
v  61.0790 129.8348 61.0790
v  50.8403 118.3203 62.5383
v  11.6066 118.3203 62.5383
v  -60.6153 130.6560 78.1561
v  0.0000 129.8348 78.1499
v  0.0000 157.5123 78.1499
v  -85.1991 156.6301 78.1489
v  60.6153 130.6560 78.1561
v  85.1991 156.6301 78.1489
v  68.9674 61.6198 86.8982
v  96.4252 65.0996 86.8982
v  -68.9674 61.6198 86.8982
v  -96.4252 65.0996 86.8982
v  0.0000 11.4834 77.0534
v  -65.3249 11.4834 77.0534
v  65.3249 11.4834 77.0534
v  59.9013 48.4084 71.6298
v  0.0000 48.4084 71.6298
v  -59.9013 48.4084 71.6298
# 74 vertices

vn -0.6119 -0.5012 0.6119
vn -0.7567 -0.6538 -0.0000
vn 0.0000 -1.0000 -0.0000
vn 0.0000 -0.6537 0.7567
vn 0.7567 -0.6538 -0.0000
vn 0.6119 -0.5012 0.6119
vn -0.6119 -0.5012 -0.6119
vn 0.0000 -0.6537 -0.7567
vn 0.6119 -0.5012 -0.6119
vn -0.6805 0.7327 0.0002
vn 0.0000 1.0000 0.0000
vn -0.6591 0.7519 0.0136
vn 0.6805 0.7327 0.0002
vn 0.6591 0.7519 0.0136
vn 0.0000 0.7479 -0.6638
vn -0.5377 0.6495 -0.5376
vn 0.5377 0.6495 -0.5376
vn 0.6214 0.6146 0.4859
vn 0.0000 0.8024 0.5968
vn 0.0000 -0.5968 0.8024
vn 0.5305 -0.5216 0.6682
vn -0.6214 0.6146 0.4859
vn -0.5305 -0.5216 0.6682
vn -0.1684 -0.0249 0.9854
vn 0.1646 -0.0411 0.9855
vn 0.1646 0.2856 0.9441
vn -0.1583 0.3001 0.9407
vn -0.1646 -0.0411 0.9855
vn 0.1684 -0.0249 0.9854
vn 0.1583 0.3001 0.9407
vn -0.1646 0.2856 0.9441
vn 0.7964 -0.6047 -0.0000
vn 0.1237 -0.6328 0.7644
vn 0.4402 -0.7826 -0.4402
vn 0.7842 -0.6182 0.0537
vn 0.7869 -0.6170 -0.0131
vn 0.6317 -0.4490 -0.6320
vn 0.0000 -0.6047 -0.7964
vn -0.4402 -0.7826 -0.4402
vn 0.0000 -0.6212 -0.7836
vn -0.6317 -0.4490 -0.6320
vn -0.7964 -0.6047 -0.0000
vn -0.1237 -0.6328 0.7644
vn -0.7869 -0.6170 -0.0131
vn -0.7842 -0.6182 0.0537
vn 0.0000 0.1355 0.9908
vn 0.0564 0.0694 0.9960
vn -0.0517 0.0802 0.9954
vn 0.0000 -0.6612 0.7502
vn 0.0564 0.1813 0.9818
vn 0.5422 -0.5556 0.6304
vn -0.0602 0.1929 0.9794
vn 0.0517 0.0802 0.9954
vn -0.0564 0.0694 0.9960
vn -0.5422 -0.5556 0.6304
vn 0.0602 0.1929 0.9794
vn -0.0564 0.1813 0.9818
vn 0.3596 -0.2965 0.8848
vn 0.0000 -0.7102 0.7040
vn 0.0000 0.7094 0.7048
vn -0.5239 0.6382 0.5642
vn -0.3596 -0.2965 0.8848
vn 0.5239 0.6382 0.5642
vn -0.5237 -0.5748 0.6287
vn 0.6234 -0.4430 0.6443
vn 0.5237 -0.5748 0.6287
vn -0.6234 -0.4431 0.6443
vn 0.2947 0.3862 0.8741
vn -0.2947 0.3862 0.8741
vn -0.3019 -0.2163 0.9285
vn 0.3019 -0.2163 0.9285
# 71 vertex normals

vt 0.6773 0.1973 0.0000
vt 0.8357 0.1973 0.0000
vt 0.8357 0.3557 0.0000
vt 0.6773 0.3557 0.0000
vt 0.8357 0.5141 0.0000
vt 0.6773 0.5141 0.0000
vt 0.9851 0.1973 0.0000
vt 0.9851 0.3557 0.0000
vt 0.9851 0.5141 0.0000
vt 0.1925 0.4956 0.0000
vt 0.3649 0.4956 0.0000
vt 0.3649 0.6185 0.0000
vt 0.1929 0.6185 0.0000
vt 0.5373 0.4956 0.0000
vt 0.5368 0.6185 0.0000
vt 0.3649 0.7815 0.0000
vt 0.1932 0.7812 0.0000
vt 0.5366 0.7812 0.0000
vt 0.1244 0.3296 0.0000
vt 0.1244 0.1982 0.0000
vt 0.1986 0.1982 0.0000
vt 0.1986 0.3187 0.0000
vt 0.1244 0.0668 0.0000
vt 0.1986 0.0777 0.0000
vt 0.8155 0.5926 0.0000
vt 0.8155 0.6279 0.0000
vt 0.7727 0.6279 0.0000
vt 0.7727 0.5980 0.0000
vt 0.8155 0.7267 0.0000
vt 0.8155 0.7621 0.0000
vt 0.7727 0.7566 0.0000
vt 0.7727 0.7267 0.0000
vt 0.5866 0.0005 0.0000
vt 0.5866 0.1589 0.0000
vt 0.4661 0.1589 0.0000
vt 0.4661 0.0182 0.0000
vt 0.5866 0.3083 0.0000
vt 0.4661 0.2906 0.0000
vt 0.3850 0.7925 0.0000
vt 0.5257 0.7925 0.0000
vt 0.5257 0.9819 0.0000
vt 0.4028 0.9784 0.0000
vt 0.7118 0.7993 0.0000
vt 0.6884 0.9838 0.0000
vt 0.5429 0.7829 0.0000
vt 0.5429 0.6245 0.0000
vt 0.6634 0.6245 0.0000
vt 0.6634 0.7652 0.0000
vt 0.5429 0.4661 0.0000
vt 0.6634 0.4838 0.0000
vt 0.0073 0.7843 0.0000
vt 0.0005 0.5892 0.0000
vt 0.1899 0.5892 0.0000
vt 0.1918 0.7609 0.0000
vt 0.0073 0.3941 0.0000
vt 0.1918 0.4175 0.0000
vt 0.9995 0.9802 0.0000
vt 0.8501 0.9802 0.0000
vt 0.8501 0.8597 0.0000
vt 0.9818 0.8597 0.0000
vt 0.6917 0.9802 0.0000
vt 0.7094 0.8597 0.0000
vt 0.3662 0.9770 0.0000
vt 0.1801 0.9838 0.0000
vt 0.1801 0.7944 0.0000
vt 0.3428 0.7925 0.0000
vt 0.0394 0.9838 0.0000
vt 0.0572 0.7980 0.0000
vt 0.8660 0.5366 0.0000
vt 0.8660 0.6773 0.0000
vt 0.8428 0.6540 0.0000
vt 0.8428 0.5631 0.0000
vt 0.7253 0.6773 0.0000
vt 0.7485 0.6540 0.0000
vt 0.7253 0.5544 0.0000
vt 0.7485 0.5750 0.0000
vt 0.8660 0.8180 0.0000
vt 0.8428 0.7916 0.0000
vt 0.8428 0.7007 0.0000
vt 0.7253 0.8002 0.0000
vt 0.7485 0.7796 0.0000
vt 0.7485 0.7007 0.0000
vt 0.9164 0.0545 0.0000
vt 0.7945 0.0562 0.0000
vt 0.7945 0.0005 0.0000
vt 0.9659 0.0023 0.0000
vt 0.6725 0.0545 0.0000
vt 0.6231 0.0023 0.0000
vt 0.6557 0.1934 0.0000
vt 0.6005 0.1864 0.0000
vt 0.3282 0.0557 0.0000
vt 0.1874 0.0557 0.0000
vt 0.1874 0.0005 0.0000
vt 0.3282 0.0005 0.0000
vt 0.0557 0.0557 0.0000
vt 0.0014 0.0014 0.0000
vt 0.0557 0.1965 0.0000
vt 0.0005 0.1965 0.0000
vt 0.0557 0.3372 0.0000
vt 0.0014 0.3916 0.0000
vt 0.1874 0.3372 0.0000
vt 0.1874 0.3924 0.0000
vt 0.3282 0.3372 0.0000
vt 0.3282 0.3924 0.0000
vt 0.9332 0.1934 0.0000
vt 0.9885 0.1864 0.0000
vt 0.9865 0.5189 0.0000
vt 0.9865 0.6773 0.0000
vt 0.9634 0.6773 0.0000
vt 0.9634 0.5459 0.0000
vt 0.9865 0.8357 0.0000
vt 0.9634 0.8087 0.0000
vt 0.8891 0.7978 0.0000
vt 0.8891 0.6773 0.0000
vt 0.8891 0.5568 0.0000
vt 0.0585 0.3296 0.0000
vt 0.0585 0.1982 0.0000
vt 0.1239 0.1982 0.0000
vt 0.1239 0.3296 0.0000
vt 0.0585 0.0668 0.0000
vt 0.1239 0.0668 0.0000
vt 0.6672 0.2069 0.0000
vt 0.6563 0.2812 0.0000
vt 0.5909 0.2716 0.0000
vt 0.6018 0.1973 0.0000
vt 0.2994 0.0886 0.0000
vt 0.2994 0.2091 0.0000
vt 0.2340 0.2091 0.0000
vt 0.2340 0.0886 0.0000
vt 0.2994 0.3296 0.0000
vt 0.2340 0.3296 0.0000
vt 0.3060 0.1646 0.0000
vt 0.3029 0.0896 0.0000
vt 0.3690 0.0869 0.0000
vt 0.3721 0.1619 0.0000
vt 0.1991 0.3296 0.0000
vt 0.1991 0.2067 0.0000
vt 0.2335 0.2067 0.0000
vt 0.2335 0.3287 0.0000
vt 0.1991 0.0839 0.0000
vt 0.2335 0.0848 0.0000
vt 0.6789 0.1301 0.0000
vt 0.8197 0.1479 0.0000
vt 0.8162 0.1820 0.0000
vt 0.6773 0.1645 0.0000
vt 0.3623 0.0025 0.0000
vt 0.3623 0.0577 0.0000
vt 0.3685 0.9801 0.0000
vt 0.3509 0.7960 0.0000
vt 0.3649 0.4613 0.0000
vt 0.5363 0.4613 0.0000
vt 0.1935 0.4613 0.0000
vt 0.0053 0.9803 0.0000
vt 0.0229 0.7962 0.0000
vt 0.3623 0.3352 0.0000
vt 0.3623 0.3904 0.0000
vt 0.7262 0.0973 0.0000
vt 0.8681 0.0992 0.0000
vt 0.8649 0.1335 0.0000
vt 0.7249 0.1316 0.0000
# 160 texture coords

o Box005
g Box005
s 2
f 1/1/1 2/2/2 3/3/3 4/4/4 
f 4/4/4 3/3/3 5/5/5 6/6/6 
f 2/2/2 7/7/7 8/8/8 3/3/3 
f 3/3/3 8/8/8 9/9/9 5/5/5 
s 4
f 10/10/10 11/11/11 12/12/11 13/13/12 
f 11/11/11 14/14/13 15/15/14 12/12/11 
f 13/13/12 12/12/11 16/16/15 17/17/16 
f 12/12/11 15/15/14 18/18/17 16/16/15 
s 8
f 19/19/18 20/20/19 21/21/20 22/22/21 
f 20/20/19 23/23/22 24/24/23 21/21/20 
f 25/25/24 26/26/25 27/27/26 28/28/27 
f 29/29/28 30/30/29 31/31/30 32/32/31 
s 16
f 6/33/6 5/34/5 33/35/32 34/36/33 
f 5/34/5 9/37/9 35/38/34 33/35/32 
f 36/39/35 37/40/36 15/41/14 14/42/13 
f 37/40/36 38/43/37 18/44/17 15/41/14 
s 32
f 9/45/9 8/46/8 39/47/38 35/48/34 
f 8/46/8 7/49/7 40/50/39 39/47/38 
f 38/51/37 41/52/40 16/53/15 18/54/17 
f 41/52/40 42/55/41 17/56/16 16/53/15 
s 64
f 7/57/7 2/58/2 43/59/42 40/60/39 
f 2/58/2 1/61/1 44/62/43 43/59/42 
f 42/63/41 45/64/44 13/65/12 17/66/16 
f 45/64/44 46/67/45 10/68/10 13/65/12 
s off
f 44/69/43 47/70/46 48/71/47 49/72/48 
f 47/70/46 50/73/49 51/74/50 48/71/47 
f 50/73/49 52/75/51 53/76/52 51/74/50 
f 52/75/51 44/69/43 49/72/48 53/76/52 
f 47/70/46 34/77/33 54/78/53 55/79/54 
f 34/77/33 56/80/55 57/81/56 54/78/53 
f 56/80/55 50/73/49 58/82/57 57/81/56 
f 50/73/49 47/70/46 55/79/54 58/82/57 
f 49/72/48 48/71/47 26/26/25 25/25/24 
f 48/71/47 51/74/50 27/27/26 26/26/25 
f 51/74/50 53/76/52 28/28/27 27/27/26 
f 53/76/52 49/72/48 25/25/24 28/28/27 
f 55/79/54 54/78/53 30/30/29 29/29/28 
f 54/78/53 57/81/56 31/31/30 30/30/29 
f 57/81/56 58/82/57 32/32/31 31/31/30 
f 58/82/57 55/79/54 29/29/28 32/32/31 
f 59/83/58 60/84/59 61/85/60 62/86/61 
f 60/84/59 63/87/62 64/88/63 61/85/60 
f 63/87/62 65/89/64 66/90/65 64/88/63 
f 34/91/33 33/92/32 37/93/36 36/94/35 
f 33/92/32 35/95/34 38/96/37 37/93/36 
f 35/95/34 39/97/38 41/98/40 38/96/37 
f 39/97/38 40/99/39 42/100/41 41/98/40 
f 40/99/39 43/101/42 45/102/44 42/100/41 
f 43/101/42 44/103/43 46/104/45 45/102/44 
f 67/105/66 59/83/58 62/86/61 68/106/67 
f 1/107/1 4/108/4 69/109/19 70/110/68 
f 4/108/4 6/111/6 71/112/69 69/109/19 
f 6/111/6 34/77/33 72/113/70 71/112/69 
f 34/77/33 47/70/46 73/114/20 72/113/70 
f 47/70/46 44/69/43 74/115/71 73/114/20 
f 44/69/43 1/107/1 70/110/68 74/115/71 
f 70/116/68 69/117/19 20/118/19 19/119/18 
f 69/117/19 71/120/69 23/121/22 20/118/19 
f 71/122/69 72/123/70 24/124/23 23/125/22 
f 72/126/70 73/127/20 21/128/20 24/129/23 
f 73/127/20 74/130/71 22/131/21 21/128/20 
f 74/132/71 70/133/68 19/134/18 22/135/21 
f 52/136/51 50/137/49 60/138/59 59/139/58 
f 50/137/49 56/140/55 63/141/62 60/138/59 
f 56/142/55 34/143/33 65/144/64 63/145/62 
f 34/91/33 36/94/35 66/146/65 65/147/64 
f 36/39/35 14/42/13 64/148/63 66/149/65 
f 14/14/13 11/11/11 61/150/60 64/151/63 
f 11/11/11 10/10/10 62/152/61 61/150/60 
f 10/68/10 46/67/45 68/153/67 62/154/61 
f 46/104/45 44/103/43 67/155/66 68/156/67 
f 44/157/43 52/158/51 59/159/58 67/160/66 
# 72 polygons

